<svg width="30" height="31" viewBox="0 0 30 31" fill="none"
  xmlns="http://www.w3.org/2000/svg">
  <rect y="0.0664062" width="30" height="30" rx="15" fill="white"/>
  <path d="M18.8673 18.9754C18.5641 18.9754 18.3183 18.7295 18.3183 18.4262V11.7413H11.6424C11.3392 11.7413 11.0934 11.4954 11.0934 11.1921C11.0934 10.8888 11.3392 10.643 11.6424 10.643H18.8746C19.0192 10.6403 19.1589 10.6957 19.2625 10.7967C19.3673 10.9014 19.4254 11.044 19.4236 11.1921V18.4262C19.4256 18.5738 19.3674 18.7158 19.2624 18.8194C19.1574 18.923 19.0147 18.9794 18.8673 18.9754Z" fill="black"/>
  <path d="M11.1007 19.5172C10.9561 19.5198 10.8164 19.4645 10.7127 19.3634C10.6077 19.2602 10.5485 19.119 10.5485 18.9717C10.5485 18.8244 10.6077 18.6832 10.7127 18.58L18.4866 10.8041C18.6235 10.6571 18.8296 10.5967 19.0241 10.6464C19.2186 10.696 19.3705 10.848 19.4202 11.0425C19.4699 11.2371 19.4094 11.4433 19.2625 11.5802L11.4887 19.3634C11.3838 19.4624 11.2449 19.5175 11.1007 19.5172Z" fill="black"/>
  <path d="M18.8673 19.5245C18.2608 19.5245 17.7693 19.0328 17.7693 18.4262V12.2904H11.6424C11.036 12.2904 10.5444 11.7987 10.5444 11.1921C10.5444 10.5856 11.036 10.0938 11.6424 10.0938H18.8819C19.1749 10.0878 19.4577 10.2016 19.665 10.4089C19.8722 10.6161 19.9859 10.899 19.9799 11.1921V18.4262C19.9799 18.7201 19.8622 19.0017 19.6531 19.2081C19.4441 19.4144 19.161 19.5284 18.8673 19.5245Z" fill="black"/>
  <path d="M11.1007 20.0663C10.8103 20.0696 10.5308 19.9562 10.3248 19.7515C10.1169 19.5453 10 19.2645 10 18.9717C10 18.6789 10.1169 18.3981 10.3248 18.1919L18.0987 10.416C18.3724 10.1222 18.7846 10.0012 19.1737 10.1006C19.5627 10.2 19.8665 10.5038 19.9658 10.893C20.0652 11.2821 19.9443 11.6945 19.6505 11.9683L11.8766 19.7515C11.6688 19.9535 11.3905 20.0665 11.1007 20.0663Z" fill="black"/>
</svg>
